# xmcd
#
# Track frame offsets:
#	150
#	12945
#	24620
#	40120
#	53730
#	68813
#	83323
#	106843
#	130330
#	148918
#	171643
#	193405
#	211803
#	235173
#	255305
#	285710
#	308408
#	337130
#
# Disc length: 4801 seconds
# Revision: 6
# Processed by: cddbd v1.5.2PL0 Copyright (c) Steve Scherf et al.
# Submitted via: dBpowerAMP V12.0
#
DISCID=fe12bf12
DTITLE=The Whispers - 30th Anniversary Anthology [CD 1)
DYEAR=1970
DGENRE=Soul
TTITLE0=Seems Like I Gotta Do Wrong
TTITLE1=There's A Love For Everyone
TTITLE2=Can't Help But Love You
TTITLE3=I Only Meant To Wet My Feet
TTITLE4=Somebody Loves You
TTITLE5=A Mother For My Children
TTITLE6=Bingo
TTITLE7=One For The Money
TTITLE8=Living Together (In Sin)
TTITLE9=Make It With You
TTITLE10=(Let's Go) All The Way
TTITLE11=(Olivia) Lost And Turned Out
TTITLE12=Can't Do Without My Love
TTITLE13=A Song For Donny
TTITLE14=And The Beat Goes On
TTITLE15=Lady
TTITLE16=My Girl
TTITLE17=It's A Love Thing
EXTD=
EXTT0=
EXTT1=
EXTT2=
EXTT3=
EXTT4=
EXTT5=
EXTT6=
EXTT7=
EXTT8=
EXTT9=
EXTT10=
EXTT11=
EXTT12=
EXTT13=
EXTT14=
EXTT15=
EXTT16=
EXTT17=
PLAYORDER=
